<?xml version="1.0" encoding="iso-8859-1"?>
<!-- Uploaded to: SVG Repo, www.svgrepo.com, Generator: SVG Repo Mixer Tools -->
<svg version="1.1" id="Layer_1" xmlns="http://www.w3.org/2000/svg" xmlns:xlink="http://www.w3.org/1999/xlink" 
	 viewBox="0 0 512 512" xml:space="preserve">
<path style="fill:#FFAA00;" d="M495.304,512H256H16.696C7.479,512,0,504.521,0,495.304c0-4.877,0-482.629,0-478.609
	C0,7.479,7.479,0,16.696,0H256h239.304C504.521,0,512,7.479,512,16.696c0,4.877,0,482.629,0,478.609
	C512,504.521,504.521,512,495.304,512z"/>
<path style="fill:#F28D00;" d="M512,16.696v478.609c0,9.206-7.527,16.696-16.696,16.696H256V0h239.304
	C504.474,0,512,7.489,512,16.696z"/>
<rect x="33.391" y="33.391" style="fill:#FFEECC;" width="445.217" height="445.217"/>
<rect x="256" y="33.391" style="fill:#FFD9B3;" width="222.609" height="445.217"/>
<path style="fill:#99DDFF;" d="M444.215,409.934L340.591,211.701l-0.116-0.223h-168.95l-0.117,0.223L67.784,409.934
	c-5.565,11.13,2.449,24.153,14.915,24.153h346.603C441.766,434.087,449.78,421.064,444.215,409.934z"/>
<path style="fill:#73C0E6;" d="M444.215,409.934L340.591,211.701l-0.116-0.223H256v222.609h173.302
	C441.766,434.087,449.78,421.064,444.215,409.934z"/>
<path style="fill:#E6F3FF;" d="M270.805,78.358c-3.117-6.01-9.017-8.904-14.805-8.904c-5.788,0-11.687,2.894-14.805,8.904
	l-69.787,133.343l39.401,39.402c6.568,6.567,17.03,6.567,23.598,0L256,229.51l21.592,21.593c6.568,6.567,17.03,6.567,23.598,0
	l39.402-39.402L270.805,78.358z"/>
<path style="fill:#B8C9D9;" d="M277.592,251.103c6.568,6.567,17.03,6.567,23.598,0l39.402-39.402L270.805,78.358
	c-3.117-6.01-9.017-8.904-14.805-8.904V229.51L277.592,251.103z"/>
<path style="fill:#D97100;" d="M217.043,367.304h-33.391c-9.217,0-16.696-7.479-16.696-16.696c0-9.217,7.479-16.696,16.696-16.696
	h33.391c9.217,0,16.696,7.479,16.696,16.696C233.739,359.826,226.261,367.304,217.043,367.304z"/>
<path style="fill:#B35A00;" d="M395.13,367.304H283.826c-9.217,0-16.696-7.479-16.696-16.696c0-9.217,7.479-16.696,16.696-16.696
	h94.609V150.261c0-9.217,7.479-16.696,16.696-16.696c9.217,0,16.696,7.479,16.696,16.696v200.348
	C411.826,359.829,404.351,367.304,395.13,367.304z"/>
<path style="fill:#66B31B;" d="M395.13,66.783c-27.619,0-50.087,22.467-50.087,50.087c0,28.032,22.036,50.087,50.087,50.087
	c27.619,0,50.087-22.467,50.087-50.087C445.217,89.297,423.673,66.783,395.13,66.783z"/>
<path style="fill:#E6F3FF;" d="M395.13,133.565c-9.673,0-16.696-7.022-16.696-16.696c0-9.206,7.49-16.696,16.696-16.696
	c9.673,0,16.696,7.022,16.696,16.696C411.826,126.076,404.336,133.565,395.13,133.565z"/>
<path style="fill:#D97100;" d="M228.174,133.565h-77.913c-9.217,0-16.696-7.479-16.696-16.696s7.479-16.696,16.696-16.696h77.913
	c9.217,0,16.696,7.479,16.696,16.696S237.391,133.565,228.174,133.565z"/>
<path style="fill:#FF5600;" d="M116.87,166.957c-27.619,0-50.087-22.467-50.087-50.087c0-28.032,22.036-50.087,50.087-50.087
	c27.619,0,50.087,22.467,50.087,50.087C166.957,144.442,145.412,166.957,116.87,166.957z"/>
<path style="fill:#FFFFFF;" d="M116.87,133.565c-9.206,0-16.696-7.49-16.696-16.696c0-9.673,7.022-16.696,16.696-16.696
	c9.206,0,16.696,7.49,16.696,16.696C133.565,126.543,126.543,133.565,116.87,133.565z"/>
</svg>